<svg width="330" height="330" viewBox="0 0 330 330" fill="none" xmlns="http://www.w3.org/2000/svg">
<mask id="mask0" mask-type="alpha" maskUnits="userSpaceOnUse" x="0" y="0" width="330" height="330">
<path d="M0 0H329.914V329.913H0V0Z" fill="white"/>
</mask>
<g mask="url(#mask0)">
<path fill-rule="evenodd" clip-rule="evenodd" d="M164.958 2.00674C75.1055 2.00674 2.0065 75.1058 2.0065 164.957C2.0065 254.808 75.1055 327.907 164.958 327.907C254.808 327.907 327.907 254.808 327.907 164.957C327.907 75.1058 254.808 2.00674 164.958 2.00674ZM164.958 329.914C74.0005 329.914 -0.000244141 255.914 -0.000244141 164.957C-0.000244141 73.9993 74.0005 0 164.958 0C255.915 0 329.914 73.9993 329.914 164.957C329.914 255.914 255.915 329.914 164.958 329.914Z" fill="white"/>
</g>
<path fill-rule="evenodd" clip-rule="evenodd" d="M71.4961 268.825L76.1242 272.812L79.5183 264.194L71.4961 268.825ZM74.9747 275.721L68.7893 270.391L64.2915 272.994L61.407 270.508L81.1989 259.737L83.6889 261.883L75.9724 283.058L73.0769 280.564L74.9747 275.721Z" fill="white"/>
<path fill-rule="evenodd" clip-rule="evenodd" d="M108.687 278.532L101.647 290.735C100.527 292.673 99.0199 293.851 97.1249 294.268C95.2294 294.684 93.2489 294.298 91.1849 293.106C89.0946 291.9 87.7569 290.384 87.1719 288.559C86.5874 286.733 86.8667 284.831 88.0096 282.848L95.0432 270.66L98.2037 272.484L91.1558 284.697C90.4509 285.918 90.2226 287.028 90.47 288.03C90.7169 289.03 91.4423 289.878 92.6458 290.572C95.0866 291.981 97.0509 291.398 98.5366 288.824L105.526 276.71L108.687 278.532Z" fill="white"/>
<path fill-rule="evenodd" clip-rule="evenodd" d="M129.846 289.851L123.645 287.667L117.624 304.764L114.196 303.556L120.218 286.459L114.073 284.295L115.054 281.509L130.827 287.064L129.846 289.851Z" fill="white"/>
<path fill-rule="evenodd" clip-rule="evenodd" d="M151.386 312.131L147.776 311.595L149.149 302.345L139.826 300.96L138.454 310.211L134.831 309.674L137.925 288.823L141.548 289.361L140.26 298.038L149.583 299.423L150.871 290.743L154.48 291.279L151.386 312.131Z" fill="white"/>
<path fill-rule="evenodd" clip-rule="evenodd" d="M176.152 302.786L167.5 303.1L167.736 309.581L177.849 309.214L177.955 312.135L164.182 312.638L163.414 291.573L177.087 291.075L177.195 294.025L167.182 294.39L167.394 300.206L176.046 299.892L176.152 302.786Z" fill="white"/>
<path fill-rule="evenodd" clip-rule="evenodd" d="M205.68 307.063L202.107 307.869L189.651 295.347L192.94 309.937L189.367 310.742L184.731 290.179L188.303 289.373L200.8 301.945L197.497 287.299L201.042 286.5L205.68 307.063Z" fill="white"/>
<path fill-rule="evenodd" clip-rule="evenodd" d="M224.191 280.373L218.163 282.993L225.39 299.617L222.057 301.066L214.83 284.442L208.855 287.04L207.678 284.331L223.013 277.664L224.191 280.373Z" fill="white"/>
<path fill-rule="evenodd" clip-rule="evenodd" d="M244.07 289.542L240.968 291.462L229.873 273.538L232.975 271.618L244.07 289.542Z" fill="white"/>
<path fill-rule="evenodd" clip-rule="evenodd" d="M262.352 266.843C263.644 268.698 264.144 270.573 263.853 272.469C263.562 274.366 262.5 276.09 260.666 277.643C259.384 278.729 257.998 279.381 256.508 279.6C255.017 279.82 253.532 279.594 252.054 278.922C250.576 278.252 249.198 277.186 247.923 275.724L246.65 274.221C245.365 272.703 244.502 271.14 244.06 269.527C243.619 267.916 243.636 266.371 244.111 264.894C244.587 263.416 245.483 262.119 246.802 261.003C248.577 259.5 250.412 258.77 252.309 258.815C254.206 258.858 255.988 259.687 257.656 261.297L254.871 263.655C253.76 262.612 252.716 262.062 251.741 262.009C250.766 261.955 249.756 262.371 248.71 263.257C247.495 264.286 246.937 265.521 247.038 266.962C247.138 268.403 247.909 269.988 249.348 271.718L250.557 273.144C252.029 274.884 253.465 275.947 254.861 276.335C256.258 276.722 257.556 276.407 258.757 275.39C259.855 274.461 260.471 273.516 260.605 272.554C260.739 271.593 260.394 270.476 259.568 269.202L262.352 266.843Z" fill="white"/>
<path fill-rule="evenodd" clip-rule="evenodd" d="M95.3237 53.9029L91.0881 37.0897L94.4965 34.9482L99.2856 56.8338L96.2817 58.7211L78.6689 44.8903L82.0645 42.7574L95.3237 53.9029Z" fill="white"/>
<path fill-rule="evenodd" clip-rule="evenodd" d="M120.054 36.5233L112.019 39.7454L114.433 45.7661L123.826 41.9991L124.914 44.7131L112.121 49.8431L104.276 30.2776L116.975 25.1858L118.074 27.927L108.776 31.6559L110.941 37.0572L118.977 33.8355L120.054 36.5233Z" fill="white"/>
<path fill-rule="evenodd" clip-rule="evenodd" d="M133.603 30.9688L137.29 30.2066C138.5 29.9569 139.382 29.4569 139.937 28.7066C140.491 27.9559 140.659 27.0518 140.44 25.9935C140.212 24.8875 139.721 24.0966 138.967 23.6219C138.213 23.1472 137.211 23.0283 135.96 23.2671L132.174 24.0498L133.603 30.9688ZM138.2 33.0348L134.201 33.861L135.842 41.8015L132.255 42.5422L127.988 21.8993L135.248 20.3983C137.631 19.9064 139.579 20.0602 141.095 20.8625C142.611 21.6639 143.578 23.0765 143.997 25.101C144.281 26.4826 144.187 27.7075 143.714 28.7778C143.24 29.8461 142.459 30.7554 141.372 31.5023L147.785 39.141L147.822 39.3249L143.98 40.1195L138.2 33.0348Z" fill="white"/>
<path fill-rule="evenodd" clip-rule="evenodd" d="M159.303 38.5961L155.66 38.8081L154.435 17.7636L158.077 17.5515L159.303 38.5961Z" fill="white"/>
<path fill-rule="evenodd" clip-rule="evenodd" d="M181.693 30.4353L173.234 29.7811L172.544 38.6863L168.892 38.4041L170.52 17.3867L183.872 18.4216L183.644 21.3663L173.944 20.6151L173.46 26.865L181.919 27.5203L181.693 30.4353Z" fill="white"/>
<path fill-rule="evenodd" clip-rule="evenodd" d="M193.851 41.7845L190.286 41.0061L194.782 20.4114L198.346 21.1898L193.851 41.7845Z" fill="white"/>
<path fill-rule="evenodd" clip-rule="evenodd" d="M217.939 39.6421L209.823 36.6286L207.566 42.71L217.054 46.2311L216.036 48.9728L203.114 44.1761L210.449 24.4138L223.276 29.1757L222.248 31.9441L212.855 28.4574L210.83 33.9146L218.947 36.9271L217.939 39.6421Z" fill="white"/>
<path fill-rule="evenodd" clip-rule="evenodd" d="M235.32 38.5444L227.562 51.6179L229.616 52.8371C231.267 53.8166 232.842 54.053 234.34 53.5439C235.837 53.0353 237.167 51.8189 238.332 49.8953L238.931 48.8862C240.098 46.9195 240.562 45.1635 240.323 43.6186C240.084 42.0741 239.151 40.8181 237.524 39.853L235.32 38.5444ZM222.918 52.2631L233.678 34.136L239.032 37.3128C240.633 38.2631 241.843 39.4637 242.66 40.9141C243.477 42.365 243.837 43.9472 243.74 45.6631C243.642 47.3785 243.091 49.0824 242.085 50.7759L241.546 51.6847C240.526 53.403 239.288 54.7106 237.829 55.6065C236.371 56.5039 234.799 56.9289 233.115 56.883C231.43 56.8382 229.771 56.3295 228.136 55.3587L222.918 52.2631Z" fill="white"/>
<path fill-rule="evenodd" clip-rule="evenodd" d="M164.958 53.9431C103.744 53.9431 53.9436 103.743 53.9436 164.956C53.9436 226.17 103.744 275.97 164.958 275.97C226.171 275.97 275.971 226.17 275.971 164.956C275.971 103.743 226.171 53.9431 164.958 53.9431ZM164.958 278.136C102.55 278.136 51.7778 227.364 51.7778 164.956C51.7778 102.549 102.55 51.7773 164.958 51.7773C227.365 51.7773 278.137 102.549 278.137 164.956C278.137 227.364 227.365 278.136 164.958 278.136Z" fill="white"/>
<path fill-rule="evenodd" clip-rule="evenodd" d="M115.178 154.211C113.969 153.217 111.872 152.998 110.711 153.492C109.588 153.953 107.774 154.631 105.458 157.644C105.457 157.65 105.457 157.655 105.458 157.661V157.677C105.444 157.688 105.433 157.701 105.423 157.716C105.398 157.748 105.37 157.79 105.327 157.845L104.913 158.42L104.683 158.736C104.526 158.966 104.371 159.197 104.221 159.446V159.386C103.019 161.07 101.16 163.701 99.5608 166.077C99.5556 166.084 99.5508 166.092 99.5475 166.1C98.9453 166.995 98.3774 167.853 97.8999 168.61C96.6701 170.343 94.8725 172.592 92.9007 174.12C92.212 174.665 91.4517 175.114 90.6418 175.453C90.3132 175.586 89.9722 175.686 89.6241 175.753C89.4674 175.776 89.3098 175.788 89.1513 175.787C88.125 175.787 87.3059 175.557 86.6617 175.13C85.5867 174.39 85.0652 173.04 85.0652 171.097V154.158H91.4097L91.6408 153.236H85.0423V145.17L78.1462 146.323V153.222H75.2211L75.3873 154.161H78.1557V171.27C78.1557 177.499 80.407 179.453 84.2509 179.684C84.8484 179.761 85.4544 179.749 86.048 179.648H86.0805C86.8265 179.552 87.5552 179.354 88.2468 179.059C88.3002 179.038 88.3599 179.017 88.4177 178.99C90.8056 178.037 93.9685 175.889 97.2518 171.178V179.714H104.209V160.997C106.252 157.69 108.515 157.137 108.515 157.743C108.537 158.783 108.996 159.764 109.779 160.448C111.555 161.877 114.153 161.596 115.582 159.82C116.937 158.137 116.764 155.694 115.187 154.218L115.178 154.211ZM104.201 153.217V157.781C102.318 160.415 98.8225 165.378 97.2422 168.033V153.217H104.201ZM135.741 153.251V172.124C134.588 174.329 132.486 175.711 130.942 175.711C127.743 175.711 126.308 174.221 126.308 171.132V153.254H119.466V171.295C119.466 177.917 122.06 179.737 126.418 179.737C129.84 179.737 134.417 176.925 135.741 173.781V179.737H142.637V153.254L135.741 153.251ZM161.479 164.948C166.391 167.982 168.045 172.793 165.286 176.754C165.286 176.754 163.191 179.733 157.562 179.733C150.887 179.733 147.577 177.195 147.577 177.195V170.246H148.516C149.344 172.396 151.109 178.796 157.562 178.796C161.484 178.796 162.141 173.831 157.95 171.072L152.378 167.705C147.025 164.45 145.593 159.984 148.624 156.011C148.624 156.011 150.721 153.242 156.238 153.242C162.58 153.242 165.339 154.899 165.339 154.899V161.077H164.4C163.685 159.146 161.917 154.182 156.238 154.182C152.65 154.182 151.104 158.429 155.905 161.463L161.479 164.948ZM197.583 138.315H190.715V167.51L197.581 157.271L197.583 138.315ZM197.583 160.743V179.702H190.715V170.781C186.306 176.088 183.168 178.081 181.588 178.805L181.373 178.897C180.269 179.439 179.056 179.725 177.825 179.735C173.483 179.735 170.904 177.975 170.904 171.318V154.269H168.152L167.985 153.332H170.904V146.457L177.777 145.304V153.334H184.317L184.098 154.271H177.777V171.155C177.777 174.168 179.045 175.769 181.671 175.822C182.186 175.804 182.696 175.717 183.187 175.564C183.187 175.564 183.201 175.564 183.215 175.55C184.112 175.246 184.959 174.809 185.727 174.253C188.565 172.267 190.72 169.115 190.72 169.115C190.95 168.836 191.144 168.582 191.303 168.363L196.462 160.632C196.801 160.088 197.586 158.95 197.586 158.95L197.583 160.743ZM226.505 153.254V179.737H219.609V173.778C218.287 176.923 213.707 179.735 210.286 179.735C205.928 179.735 203.335 177.914 203.335 171.293V153.251H210.176V171.127C210.176 174.217 211.611 175.707 214.811 175.707C216.356 175.707 218.451 174.322 219.609 172.119V153.251L226.505 153.254ZM244.332 163.975L252.202 153.254H250.661L243.64 162.826L237.365 153.254H229.495L239.6 168.324L231.214 179.737H232.758L240.309 169.461L247.043 179.737H254.694L244.332 163.975Z" fill="white"/>
<path fill-rule="evenodd" clip-rule="evenodd" d="M198.905 248.703C198.369 248.703 197.86 248.391 197.634 247.868L190.33 230.973C190.253 230.794 190.217 230.608 190.217 230.425C190.217 229.889 190.529 229.379 191.051 229.153C191.754 228.848 192.567 229.173 192.871 229.874L200.174 246.769C200.252 246.948 200.288 247.135 200.288 247.318C200.288 247.853 199.976 248.364 199.453 248.589C199.273 248.667 199.088 248.703 198.905 248.703Z" fill="white"/>
<path fill-rule="evenodd" clip-rule="evenodd" d="M130.721 248.585C130.552 248.585 130.379 248.555 130.212 248.488C129.668 248.273 129.338 247.751 129.338 247.201C129.338 247.031 129.369 246.859 129.436 246.692L136.219 229.578C136.5 228.868 137.305 228.52 138.014 228.802C138.558 229.017 138.889 229.538 138.889 230.089C138.889 230.259 138.858 230.43 138.791 230.598L132.008 247.711C131.793 248.255 131.272 248.585 130.721 248.585Z" fill="white"/>
<path fill-rule="evenodd" clip-rule="evenodd" d="M138.315 100.874C137.779 100.874 137.269 100.562 137.043 100.039L129.739 83.1438C129.663 82.9652 129.626 82.778 129.626 82.5956C129.626 82.0602 129.938 81.5497 130.461 81.3238C131.164 81.0191 131.977 81.3434 132.28 82.0449L139.584 98.9399C139.661 99.119 139.698 99.3057 139.698 99.4891C139.698 100.024 139.386 100.534 138.863 100.76C138.683 100.837 138.498 100.874 138.315 100.874Z" fill="white"/>
<path fill-rule="evenodd" clip-rule="evenodd" d="M192.409 101.209C192.239 101.209 192.067 101.178 191.9 101.111C191.356 100.896 191.025 100.375 191.025 99.824C191.025 99.6545 191.056 99.4825 191.123 99.3149L197.907 82.2022C198.188 81.4915 198.993 81.1434 199.702 81.4251C200.246 81.6401 200.577 82.1616 200.577 82.7127C200.577 82.8817 200.546 83.0541 200.479 83.2213L193.695 100.335C193.48 100.878 192.959 101.209 192.409 101.209Z" fill="white"/>
<path fill-rule="evenodd" clip-rule="evenodd" d="M222.917 224.669C222.569 224.669 222.222 224.539 221.953 224.278L213.662 216.238C213.382 215.966 213.242 215.605 213.242 215.245C213.242 214.897 213.371 214.55 213.633 214.28C214.165 213.733 215.041 213.719 215.589 214.251L223.88 222.291C224.16 222.562 224.3 222.923 224.3 223.284C224.3 223.631 224.171 223.979 223.909 224.248C223.638 224.527 223.278 224.669 222.917 224.669Z" fill="white"/>
<path fill-rule="evenodd" clip-rule="evenodd" d="M164.696 248.574C163.941 248.574 163.324 247.968 163.313 247.211L163.136 235.656C163.135 235.65 163.135 235.642 163.135 235.634C163.136 234.88 163.741 234.264 164.498 234.252C164.506 234.252 164.513 234.252 164.52 234.252C165.274 234.252 165.891 234.858 165.903 235.614L166.079 247.169C166.08 247.176 166.08 247.184 166.08 247.191C166.079 247.945 165.474 248.562 164.717 248.573C164.71 248.574 164.703 248.574 164.696 248.574Z" fill="white"/>
<path fill-rule="evenodd" clip-rule="evenodd" d="M106.629 224.3C106.281 224.3 105.935 224.17 105.665 223.91C105.386 223.639 105.246 223.277 105.245 222.917C105.245 222.57 105.374 222.222 105.636 221.953L113.677 213.662C114.21 213.113 115.084 213.101 115.633 213.632C115.913 213.902 116.053 214.263 116.054 214.624C116.054 214.972 115.925 215.319 115.663 215.588L107.622 223.88C107.351 224.159 106.99 224.3 106.629 224.3Z" fill="white"/>
<path fill-rule="evenodd" clip-rule="evenodd" d="M115.289 116.053C114.941 116.053 114.594 115.923 114.325 115.662L106.035 107.622C105.755 107.351 105.615 106.989 105.614 106.629C105.614 106.282 105.744 105.934 106.005 105.665C106.537 105.117 107.412 105.104 107.961 105.635L116.253 113.675C116.532 113.947 116.672 114.308 116.673 114.668C116.673 115.015 116.543 115.363 116.282 115.632C116.011 115.912 115.65 116.053 115.289 116.053Z" fill="white"/>
<path fill-rule="evenodd" clip-rule="evenodd" d="M165.394 95.6612C164.64 95.6612 164.023 95.0552 164.011 94.2982L163.834 82.7439C163.833 82.7372 163.833 82.7296 163.833 82.7214C163.834 81.9678 164.439 81.3513 165.197 81.3398C165.204 81.3394 165.211 81.3394 165.218 81.3394C165.973 81.3394 166.589 81.9449 166.601 82.7019L166.778 94.2567C166.779 94.2633 166.779 94.271 166.779 94.2786C166.778 95.0327 166.173 95.6493 165.416 95.6607C165.409 95.6612 165.401 95.6612 165.394 95.6612Z" fill="white"/>
<path fill-rule="evenodd" clip-rule="evenodd" d="M215.245 116.673C214.897 116.673 214.55 116.543 214.281 116.282C214.001 116.011 213.861 115.65 213.861 115.289C213.861 114.942 213.99 114.594 214.251 114.325L222.293 106.034C222.825 105.485 223.699 105.473 224.249 106.004C224.528 106.275 224.668 106.635 224.669 106.996C224.669 107.344 224.54 107.691 224.279 107.961L216.237 116.252C215.966 116.532 215.606 116.673 215.245 116.673Z" fill="white"/>
<path fill-rule="evenodd" clip-rule="evenodd" d="M198.905 248.703C198.369 248.703 197.86 248.391 197.634 247.868L190.33 230.973C190.253 230.794 190.217 230.608 190.217 230.425C190.217 229.889 190.529 229.379 191.051 229.153C191.754 228.848 192.567 229.173 192.871 229.874L200.174 246.769C200.252 246.948 200.288 247.135 200.288 247.318C200.288 247.853 199.976 248.364 199.453 248.589C199.273 248.667 199.088 248.703 198.905 248.703Z" fill="white"/>
<path fill-rule="evenodd" clip-rule="evenodd" d="M130.721 248.585C130.552 248.585 130.379 248.555 130.212 248.488C129.668 248.273 129.338 247.751 129.338 247.201C129.338 247.031 129.369 246.859 129.436 246.692L136.219 229.578C136.5 228.868 137.305 228.52 138.014 228.802C138.558 229.017 138.889 229.538 138.889 230.089C138.889 230.259 138.858 230.43 138.791 230.598L132.008 247.711C131.793 248.255 131.272 248.585 130.721 248.585Z" fill="white"/>
<path fill-rule="evenodd" clip-rule="evenodd" d="M138.315 100.874C137.779 100.874 137.269 100.562 137.043 100.039L129.739 83.1438C129.663 82.9652 129.626 82.778 129.626 82.5956C129.626 82.0602 129.938 81.5497 130.461 81.3238C131.164 81.0191 131.977 81.3434 132.28 82.0449L139.584 98.9399C139.661 99.119 139.698 99.3057 139.698 99.4891C139.698 100.024 139.386 100.534 138.863 100.76C138.683 100.837 138.498 100.874 138.315 100.874Z" fill="white"/>
<path fill-rule="evenodd" clip-rule="evenodd" d="M192.409 101.209C192.239 101.209 192.067 101.178 191.9 101.111C191.356 100.896 191.025 100.375 191.025 99.824C191.025 99.6545 191.056 99.4825 191.123 99.3149L197.907 82.2022C198.188 81.4915 198.993 81.1434 199.702 81.4251C200.246 81.6401 200.577 82.1616 200.577 82.7127C200.577 82.8817 200.546 83.0541 200.479 83.2213L193.695 100.335C193.48 100.878 192.959 101.209 192.409 101.209Z" fill="white"/>
<path fill-rule="evenodd" clip-rule="evenodd" d="M222.917 224.669C222.569 224.669 222.222 224.539 221.953 224.278L213.662 216.238C213.382 215.966 213.242 215.605 213.242 215.245C213.242 214.897 213.371 214.55 213.633 214.28C214.165 213.733 215.041 213.719 215.589 214.251L223.88 222.291C224.16 222.562 224.3 222.923 224.3 223.284C224.3 223.631 224.171 223.979 223.909 224.248C223.638 224.527 223.278 224.669 222.917 224.669Z" fill="white"/>
<path fill-rule="evenodd" clip-rule="evenodd" d="M164.696 248.574C163.941 248.574 163.324 247.968 163.313 247.211L163.136 235.656C163.135 235.65 163.135 235.642 163.135 235.634C163.136 234.88 163.741 234.264 164.498 234.252C164.506 234.252 164.513 234.252 164.52 234.252C165.274 234.252 165.891 234.858 165.903 235.614L166.079 247.169C166.08 247.176 166.08 247.184 166.08 247.191C166.079 247.945 165.474 248.562 164.717 248.573C164.71 248.574 164.703 248.574 164.696 248.574Z" fill="white"/>
<path fill-rule="evenodd" clip-rule="evenodd" d="M106.629 224.3C106.281 224.3 105.935 224.17 105.665 223.91C105.386 223.639 105.246 223.277 105.245 222.917C105.245 222.57 105.374 222.222 105.636 221.953L113.677 213.662C114.21 213.113 115.084 213.101 115.633 213.632C115.913 213.902 116.053 214.263 116.054 214.624C116.054 214.972 115.925 215.319 115.663 215.588L107.622 223.88C107.351 224.159 106.99 224.3 106.629 224.3Z" fill="white"/>
<path fill-rule="evenodd" clip-rule="evenodd" d="M115.289 116.053C114.941 116.053 114.594 115.923 114.325 115.662L106.035 107.622C105.755 107.351 105.615 106.989 105.614 106.629C105.614 106.282 105.744 105.934 106.005 105.665C106.537 105.117 107.412 105.104 107.961 105.635L116.253 113.675C116.532 113.947 116.672 114.308 116.673 114.668C116.673 115.015 116.543 115.363 116.282 115.632C116.011 115.912 115.65 116.053 115.289 116.053Z" fill="white"/>
<path fill-rule="evenodd" clip-rule="evenodd" d="M165.394 95.6612C164.64 95.6612 164.023 95.0552 164.011 94.2982L163.834 82.7439C163.833 82.7372 163.833 82.7296 163.833 82.7214C163.834 81.9678 164.439 81.3513 165.197 81.3398C165.204 81.3394 165.211 81.3394 165.218 81.3394C165.973 81.3394 166.589 81.9449 166.601 82.7019L166.778 94.2567C166.779 94.2633 166.779 94.271 166.779 94.2786C166.778 95.0327 166.173 95.6493 165.416 95.6607C165.409 95.6612 165.401 95.6612 165.394 95.6612Z" fill="white"/>
<path fill-rule="evenodd" clip-rule="evenodd" d="M215.245 116.673C214.897 116.673 214.55 116.543 214.281 116.282C214.001 116.011 213.861 115.65 213.861 115.289C213.861 114.942 213.99 114.594 214.251 114.325L222.293 106.034C222.825 105.485 223.699 105.473 224.249 106.004C224.528 106.275 224.668 106.635 224.669 106.996C224.669 107.344 224.54 107.691 224.279 107.961L216.237 116.252C215.966 116.532 215.606 116.673 215.245 116.673Z" fill="white"/>
<path fill-rule="evenodd" clip-rule="evenodd" d="M276.553 247.633L274.899 246.407C292.484 222.709 301.779 194.544 301.779 164.957C301.779 128.722 287.749 94.5702 262.275 68.7925L263.739 67.3455C289.597 93.511 303.838 128.177 303.838 164.957C303.838 194.989 294.403 223.577 276.553 247.633Z" fill="white"/>
<path fill-rule="evenodd" clip-rule="evenodd" d="M53.3616 247.633C35.5115 223.577 26.0762 194.989 26.0762 164.957C26.0762 128.177 40.3177 93.511 66.1762 67.3455L67.6395 68.7925C42.165 94.5702 28.1354 128.722 28.1354 164.957C28.1354 194.544 37.4304 222.709 55.0149 246.407L53.3616 247.633Z" fill="white"/>
</svg>
